# xmcd
# 
# Track frame offsets:
#     150
#     23205
#     40508
#     61328
#     84166
#     106059
#     127802
#     142172
#     160405
#     178563
#     198326
#     221689
# 
# Disc length: 3258
# 
# Revision: 0
# Processed by: cddbd v1.5.2PL0 Copyright (c) Steve Scherf et al.
# Submitted via: fre:ac v1.0.27
# 
DISCID=9a0cb80c
DTITLE=Eric Clapton - I still Do
DYEAR=2016
DGENRE=Blues
TTITLE0=Alabama Woman Blues
TTITLE1=Can't Let You Do It
TTITLE2=I Will Be There
TTITLE3=Spiral
TTITLE4=Catch The Blues
TTITLE5=Cypress Grove
TTITLE6=Little Man, You've Had A Busy D
TTITLE7=Stones In My Passway
TTITLE8=I Dreamed I Saw St. Augustine
TTITLE9=I'll Be Alright
TTITLE10=Somebody's Knockin'
TTITLE11=I'll Be Seeing You
EXTD=
EXTT0=
EXTT1=
EXTT2=
EXTT3=
EXTT4=
EXTT5=
EXTT6=
EXTT7=
EXTT8=
EXTT9=
EXTT10=
EXTT11=
PLAYORDER=
